<?xml version="1.0" encoding="UTF-8"?>
<svg width="601px" height="99px" viewBox="0 0 601 99" version="1.1" xmlns="http://www.w3.org/2000/svg" xmlns:xlink="http://www.w3.org/1999/xlink">
    <title>Group 10</title>
    <g id="Page-2" stroke="none" stroke-width="1" fill="none" fill-rule="evenodd">
        <g id="Group-10" transform="translate(2, 1)" stroke="#555555" stroke-width="2">
            <rect id="Rectangle" fill="#ECECEC" x="328.5" y="1" width="92" height="21"></rect>
            <rect id="Rectangle" fill="#ECECEC" x="438" y="1" width="22" height="95"></rect>
            <polygon id="Path-3" fill="#ECECEC" points="0 0 25 0 70 97 44 97"></polygon>
            <polygon id="Path-4" fill="#ECECEC" points="61 63.8150847 90 -9.68092745e-16 115 0 73.7201297 91.437471"></polygon>
            <polygon id="Path-5" fill="#ECECEC" points="147 0 172 0 216 97 191 97"></polygon>
            <polygon id="Path-6" fill="#ECECEC" points="143 5.8455055 101 97 126 97 155.862427 33.4995245"></polygon>
            <polygon id="Path-5" fill="#ECECEC" points="527.5 0 552.5 0 596.5 97 571.5 97"></polygon>
            <polygon id="Path-6" fill="#ECECEC" points="523.5 5.8455055 481.5 97 506.5 97 536.362427 33.4995245"></polygon>
            <path d="M256,97 L233,97 L233,1.13686838e-13 L289.080076,0 C301.432931,0 308.367071,11.2204622 310.480807,15.1516254 C311.438529,16.9328138 313.928977,24 313.928977,32.8628496 C313.928977,51.5568439 308.731629,62.096197 298.816943,66.8347806 C300.732275,70.9358073 306.758936,80.9908804 316.896927,97 L291.080076,97 L270.822809,56.5827735 C274.971557,54.8409981 279.135076,53.0088037 283.313367,51.0861905 C289.476567,49.0861905 291.080076,42.7771033 291.080076,34.9713243 C291.080076,27.1655452 289.897145,21 284.313367,19.1626575 L256,19.162 L256,97 Z" id="Combined-Shape" fill="#ECECEC"></path>
            <rect id="Rectangle" fill="#E4E4E4" x="362" y="27" width="22" height="70"></rect>
        </g>
    </g>
</svg>